<svg width="24" height="24" viewBox="0 0 24 24" fill="none" xmlns="http://www.w3.org/2000/svg">
<path d="M17.0522 11.0217C16.9029 11.174 16.8193 11.3787 16.8193 11.592C16.8193 11.8053 16.9029 12.01 17.0522 12.1623L18.3559 13.466C18.5082 13.6153 18.7129 13.6989 18.9262 13.6989C19.1395 13.6989 19.3443 13.6153 19.4966 13.466L22.5683 10.3943C22.978 11.2996 23.102 12.3084 22.9239 13.286C22.7458 14.2637 22.2739 15.1639 21.5712 15.8666C20.8685 16.5692 19.9684 17.0411 18.9907 17.2192C18.013 17.3974 17.0043 17.2733 16.0989 16.8636L10.4688 22.4937C10.1447 22.8179 9.70504 23 9.24664 23C8.78824 23 8.34861 22.8179 8.02447 22.4937C7.70033 22.1696 7.51823 21.73 7.51823 21.2716C7.51823 20.8132 7.70033 20.3735 8.02447 20.0494L13.6546 14.4193C13.2449 13.5139 13.1208 12.5052 13.299 11.5275C13.4771 10.5498 13.949 9.64969 14.6517 8.947C15.3543 8.24431 16.2545 7.77245 17.2322 7.59432C18.2098 7.41619 19.2186 7.54024 20.1239 7.94994L17.0604 11.0135L17.0522 11.0217Z" stroke="white" stroke-width="1.5" stroke-linecap="round" stroke-linejoin="round"/>
<path d="M6.50002 17.2956H2.62956C2.19737 17.2956 1.78289 17.1239 1.47729 16.8183C1.17168 16.5127 1 16.0982 1 15.666V6.70345L8.33301 1L14.2001 5.56325" stroke="white" stroke-width="1.5" stroke-linecap="round" stroke-linejoin="round"/>
</svg>
