<svg width="25" height="24" viewBox="0 0 25 24" fill="none" xmlns="http://www.w3.org/2000/svg">
<path d="M20.9014 20.6685V16.7078C20.9014 14.4986 19.1106 12.7078 16.9014 12.7078H14.9309M3.65315 20.6685V16.7078C3.65315 14.4986 5.44401 12.7078 7.65315 12.7078H9.62371" stroke="#969797" stroke-width="1.5" stroke-linecap="round" stroke-linejoin="round"/>
<path d="M19.5764 2.66849V5.72754C19.5764 7.38439 18.2332 8.72754 16.5764 8.72754H7.98168C6.32483 8.72754 4.98168 7.38439 4.98168 5.72754V2.66849" stroke="#969797" stroke-width="1.5" stroke-linecap="round" stroke-linejoin="round"/>
<path d="M16.2561 8.72751L14.5092 13.3858C14.3629 13.7761 13.9897 14.0347 13.5729 14.0347H10.9785C10.5617 14.0347 10.1886 13.7761 10.0422 13.3858L8.29534 8.72751" stroke="#969797" stroke-width="1.5" stroke-linecap="round" stroke-linejoin="round"/>
<path d="M1 3.99561H8.96074" stroke="#969797" stroke-width="1.5" stroke-linecap="round" stroke-linejoin="round"/>
<path d="M15.5959 3.99561H23.5567" stroke="#969797" stroke-width="1.5" stroke-linecap="round" stroke-linejoin="round"/>
</svg>
