<svg width="25" height="21" viewBox="0 0 25 21" fill="none" xmlns="http://www.w3.org/2000/svg">
<path d="M20.9016 19.6685V15.7078C20.9016 13.4986 19.1107 11.7078 16.9016 11.7078H14.931M3.65332 19.6685V15.7078C3.65332 13.4986 5.44418 11.7078 7.65332 11.7078H9.62388" stroke="white" stroke-width="1.5" stroke-linecap="round" stroke-linejoin="round"/>
<path d="M19.5761 1.66849V4.72754C19.5761 6.38439 18.233 7.72754 16.5761 7.72754H7.98145C6.32459 7.72754 4.98145 6.38439 4.98145 4.72754V1.66849" stroke="white" stroke-width="1.5" stroke-linecap="round" stroke-linejoin="round"/>
<path d="M16.2557 7.72751L14.5088 12.3858C14.3624 12.7761 13.9893 13.0347 13.5725 13.0347H10.9781C10.5613 13.0347 10.1881 12.7761 10.0418 12.3858L8.29492 7.72751" stroke="white" stroke-width="1.5" stroke-linecap="round" stroke-linejoin="round"/>
<path d="M1 2.99561H8.96074" stroke="white" stroke-width="1.5" stroke-linecap="round" stroke-linejoin="round"/>
<path d="M15.5957 2.99561H23.5564" stroke="white" stroke-width="1.5" stroke-linecap="round" stroke-linejoin="round"/>
</svg>
